<svg version="1.2" xmlns="http://www.w3.org/2000/svg" viewBox="0 0 700 610" width="700" height="610">
	<title>noun-search-4809790-svg</title>
	<style>
		.s0 { fill: #000000 } 
	</style>
	<g id="Layer">
		<path id="Layer" fill-rule="evenodd" class="s0" d="m237.4 327.9c-25.4-33.4-33.8-76.7-22.7-117.2 11.1-40.4 40.5-73.4 79.5-89 38.9-15.7 83-12.2 119 9.3 36 21.5 59.9 58.6 64.6 100.3 4.7 41.8-10.3 83.3-40.7 112.3l48.8 69.1c4.6 6.6 5.4 15.1 2 22.3-3.3 7.3-10.3 12.2-18.3 12.9-7.9 0.8-15.7-2.8-20.3-9.4l-49.3-69.8c-17.4 8-36.4 12.1-55.6 12.1-42 0-81.5-19.5-107-52.9zm43.6-144.9c-16.8 16.8-26.2 39.6-26.2 63.4 0 23.8 9.4 46.6 26.2 63.4 16.8 16.8 39.6 26.2 63.4 26.2 23.8 0 46.6-9.4 63.4-26.2 16.8-16.8 26.2-39.6 26.2-63.4 0-23.8-9.4-46.6-26.2-63.4-16.8-16.8-39.6-26.2-63.4-26.2-23.8 0-46.6 9.4-63.4 26.2z"/>
		<g id="g">
			<path id="Layer" class="s0" d="m88.8 642.9q-1.5 0.7-3.1 1.1-1.5 0.4-3.2 0.4-5.1 0-8.1-2.9-3-2.8-3-7.7 0-4.9 3-7.7 3-2.9 8.1-2.9 1.7 0 3.2 0.4 1.6 0.4 3.1 1.1v4.3q-1.5-1-2.9-1.5-1.4-0.5-3-0.5-2.8 0-4.4 1.8-1.7 1.8-1.7 5 0 3.2 1.7 5 1.6 1.8 4.4 1.8 1.6 0 3-0.5 1.4-0.4 2.9-1.4z"/>
		</g>
		<g id="a">
			<path id="Layer" class="s0" d="m104.3 632.9q-0.7-0.3-1.3-0.5-0.6-0.1-1.3-0.1-1.9 0-2.9 1.2-1 1.2-1 3.4v7.1h-4.9v-15.3h4.9v2.5q0.9-1.5 2.2-2.2 1.2-0.7 2.9-0.7 0.2 0 0.5 0 0.3 0.1 0.9 0.1z"/>
		</g>
		<g id="b">
			<path id="Layer" fill-rule="evenodd" class="s0" d="m122 636.3v1.4h-11.5q0.2 1.7 1.3 2.6 1.1 0.8 3 0.8 1.5 0 3.1-0.4 1.7-0.5 3.4-1.4v3.8q-1.8 0.6-3.5 0.9-1.7 0.4-3.5 0.4-4.1 0-6.4-2.1-2.3-2.1-2.3-5.9 0-3.8 2.2-5.9 2.3-2.2 6.2-2.2 3.7 0 5.8 2.2 2.2 2.2 2.2 5.8zm-5-1.6q0-1.4-0.8-2.3-0.9-0.8-2.2-0.8-1.4 0-2.3 0.8-0.9 0.8-1.1 2.3z"/>
		</g>
		<g id="e">
			<path id="Layer" fill-rule="evenodd" class="s0" d="m140 635.3v8.7h-4.9v-2.3q-1 1.4-2.2 2.1-1.2 0.6-3 0.6-2.4 0-3.9-1.4-1.5-1.4-1.4-3.6-0.1-2.7 1.8-3.9 1.9-1.3 5.8-1.3h2.9v-0.4q0-1.1-0.9-1.7-0.9-0.5-2.9-0.5-1.5 0-2.9 0.3-1.4 0.3-2.5 0.9v-3.7q1.6-0.4 3.1-0.6 1.6-0.2 3.2-0.2 4.2 0 6 1.7 1.8 1.6 1.8 5.3zm-7.4 1.8q-1.6 0-2.3 0.5-0.8 0.5-0.8 1.6 0 0.9 0.6 1.4 0.6 0.5 1.7 0.5 1.4 0 2.4-0.9 0.9-1 0.9-2.5v-0.6z"/>
		</g>
		<g id="d">
			<path id="Layer" class="s0" d="m149.9 624.3v4.4h5.1v3.5h-5.1v6.5q0 1.1 0.5 1.4 0.4 0.4 1.6 0.4h2.6v3.5h-4.2q-2.9 0-4.2-1.2-1.2-1.2-1.2-4.1v-6.5h-2.4v-3.5h2.4v-4.4z"/>
		</g>
		<g id="b">
			<path id="Layer" fill-rule="evenodd" class="s0" d="m173.3 636.3v1.4h-11.5q0.2 1.7 1.3 2.6 1 0.8 3 0.8 1.5 0 3.1-0.4 1.6-0.5 3.3-1.4v3.8q-1.7 0.6-3.4 0.9-1.8 0.4-3.5 0.4-4.2 0-6.5-2.1-2.3-2.1-2.3-5.9 0-3.8 2.3-5.9 2.3-2.2 6.2-2.2 3.6 0 5.8 2.2 2.2 2.2 2.2 5.8zm-5.1-1.6q0-1.4-0.8-2.3-0.8-0.8-2.1-0.8-1.4 0-2.3 0.8-0.9 0.8-1.1 2.3z"/>
		</g>
		<g id="k">
			<path id="Layer" fill-rule="evenodd" class="s0" d="m187.4 630.9v-8.2h4.9v21.3h-4.9v-2.2q-1 1.3-2.2 2-1.3 0.6-2.9 0.6-2.8 0-4.6-2.3-1.8-2.2-1.8-5.7 0-3.6 1.8-5.8 1.8-2.3 4.6-2.3 1.6 0 2.8 0.7 1.3 0.6 2.3 1.9zm-3.2 9.9q1.5 0 2.4-1.1 0.8-1.1 0.8-3.3 0-2.2-0.8-3.4-0.9-1.1-2.4-1.1-1.6 0-2.4 1.1-0.9 1.2-0.9 3.4 0 2.1 0.9 3.3 0.8 1.1 2.4 1.1z"/>
		</g>
		<g id="j">
			<path id="Layer" fill-rule="evenodd" class="s0" d="m211.7 630.9q1-1.3 2.2-1.9 1.2-0.7 2.8-0.7 2.9 0 4.7 2.3 1.8 2.2 1.8 5.8 0 3.5-1.8 5.7-1.8 2.3-4.7 2.3-1.6 0-2.8-0.6-1.2-0.7-2.2-2v2.2h-4.9v-21.3h4.9zm3.2 9.9q1.6 0 2.4-1.1 0.8-1.2 0.8-3.3 0-2.2-0.8-3.4-0.8-1.1-2.4-1.1-1.6 0-2.4 1.1-0.8 1.2-0.8 3.4 0 2.1 0.8 3.3 0.8 1.1 2.4 1.1z"/>
		</g>
		<g id="i">
			<path id="Layer" class="s0" d="m224.8 628.7h4.9l4.1 10.4 3.5-10.4h4.9l-6.4 16.8q-1 2.5-2.3 3.5-1.3 1-3.4 1h-2.9v-3.2h1.6q1.2 0 1.8-0.4 0.6-0.4 0.9-1.4l0.1-0.4z"/>
		</g>
		<g id="h">
			<path id="Layer" class="s0" d="m273.4 642.5q-2 0.9-4.1 1.4-2.1 0.5-4.4 0.5-5.1 0-8.1-2.9-3-2.8-3-7.7 0-4.9 3.1-7.8 3-2.8 8.3-2.8 2 0 3.9 0.4 1.9 0.4 3.5 1.1v4.3q-1.7-1-3.4-1.5-1.7-0.5-3.4-0.5-3.1 0-4.8 1.8-1.7 1.7-1.7 5 0 3.2 1.6 5 1.7 1.8 4.7 1.8 0.8 0 1.5-0.1 0.7-0.1 1.3-0.3v-4h-3.2v-3.5h8.2z"/>
		</g>
		<g id="a">
			<path id="Layer" class="s0" d="m289.2 632.9q-0.7-0.3-1.3-0.5-0.7-0.1-1.3-0.1-1.9 0-2.9 1.2-1 1.2-1 3.4v7.1h-4.9v-15.3h4.9v2.5q0.9-1.5 2.1-2.2 1.3-0.7 3-0.7 0.2 0 0.5 0 0.3 0.1 0.9 0.1z"/>
		</g>
		<g id="b">
			<path id="Layer" fill-rule="evenodd" class="s0" d="m306.9 636.3v1.4h-11.5q0.2 1.7 1.3 2.6 1 0.8 3 0.8 1.5 0 3.1-0.4 1.6-0.5 3.3-1.4v3.8q-1.7 0.6-3.4 0.9-1.8 0.4-3.5 0.4-4.1 0-6.5-2.1-2.3-2.1-2.3-5.9 0-3.8 2.3-5.9 2.3-2.2 6.2-2.2 3.6 0 5.8 2.2 2.2 2.2 2.2 5.8zm-5-1.6q0-1.4-0.9-2.3-0.8-0.8-2.1-0.8-1.4 0-2.3 0.8-0.9 0.8-1.1 2.3z"/>
		</g>
		<g id="u">
			<path id="Layer" fill-rule="evenodd" class="s0" d="m321 641.4q-1 1.3-2.2 2-1.2 0.6-2.8 0.6-2.8 0-4.7-2.2-1.8-2.2-1.8-5.6 0-3.5 1.8-5.7 1.9-2.2 4.7-2.2 1.6 0 2.8 0.7 1.2 0.6 2.2 2v-2.3h4.9v13.8q0 3.6-2.3 5.6-2.3 1.9-6.8 1.9-1.4 0-2.7-0.2-1.4-0.2-2.7-0.6v-3.9q1.3 0.8 2.5 1.1 1.2 0.4 2.5 0.4 2.4 0 3.5-1 1.1-1.1 1.1-3.3zm-3.2-9.6q-1.5 0-2.4 1.1-0.8 1.2-0.8 3.2 0 2.1 0.8 3.2 0.8 1.1 2.4 1.1 1.5 0 2.4-1.1 0.8-1.1 0.8-3.2 0-2-0.8-3.2-0.9-1.1-2.4-1.1z"/>
		</g>
		<g id="c">
			<path id="Layer" fill-rule="evenodd" class="s0" d="m337.9 628.3q4 0 6.2 2.2 2.2 2.1 2.2 5.9 0 3.7-2.2 5.9-2.2 2.1-6.2 2.1-4 0-6.2-2.1-2.2-2.2-2.2-5.9 0-3.8 2.2-5.9 2.2-2.2 6.2-2.2zm0 3.5q-1.6 0-2.5 1.2-0.8 1.2-0.8 3.4 0 2.2 0.8 3.3 0.9 1.2 2.5 1.2 1.6 0 2.5-1.2 0.8-1.1 0.8-3.3 0-2.2-0.8-3.4-0.9-1.2-2.5-1.2z"/>
		</g>
		<g id="a">
			<path id="Layer" class="s0" d="m361.2 632.9q-0.6-0.3-1.3-0.5-0.6-0.1-1.2-0.1-1.9 0-2.9 1.2-1 1.2-1 3.4v7.1h-4.9v-15.3h4.9v2.5q0.9-1.5 2.1-2.2 1.2-0.7 3-0.7 0.2 0 0.5 0 0.3 0.1 0.8 0.1z"/>
		</g>
		<g id="g">
			<path id="Layer" class="s0" d="m389.8 642.9q-1.4 0.7-3 1.1-1.6 0.4-3.3 0.4-5.1 0-8.1-2.9-2.9-2.8-2.9-7.7 0-4.9 2.9-7.7 3-2.9 8.1-2.9 1.7 0 3.3 0.4 1.6 0.4 3 1.1v4.3q-1.4-1-2.9-1.5-1.4-0.5-3-0.5-2.8 0-4.4 1.8-1.6 1.8-1.6 5 0 3.2 1.6 5 1.6 1.8 4.4 1.8 1.6 0 3-0.5 1.5-0.4 2.9-1.4z"/>
		</g>
		<g id="a">
			<path id="Layer" class="s0" d="m405.4 632.9q-0.7-0.3-1.3-0.5-0.7-0.1-1.3-0.1-1.9 0-2.9 1.2-1 1.2-1 3.4v7.1h-4.9v-15.3h4.9v2.5q0.9-1.5 2.1-2.2 1.3-0.7 3-0.7 0.2 0 0.5 0 0.3 0.1 0.8 0.1z"/>
		</g>
		<g id="b">
			<path id="Layer" fill-rule="evenodd" class="s0" d="m423.1 636.3v1.4h-11.5q0.2 1.7 1.3 2.6 1 0.8 2.9 0.8 1.6 0 3.2-0.4 1.6-0.5 3.3-1.4v3.8q-1.7 0.6-3.4 0.9-1.8 0.4-3.5 0.4-4.2 0-6.5-2.1-2.3-2.1-2.3-5.9 0-3.8 2.3-5.9 2.3-2.2 6.2-2.2 3.6 0 5.8 2.2 2.2 2.2 2.2 5.8zm-5.1-1.6q0-1.4-0.8-2.3-0.8-0.8-2.1-0.8-1.4 0-2.3 0.8-0.9 0.8-1.1 2.3z"/>
		</g>
		<g id="t">
			<path id="Layer" class="s0" d="m438.7 629.2v3.7q-1.5-0.7-3-1-1.5-0.3-2.8-0.3-1.4 0-2 0.3-0.7 0.4-0.7 1.1 0 0.6 0.5 0.9 0.5 0.3 1.8 0.5l0.9 0.1q3.8 0.5 5.1 1.6 1.3 1.1 1.3 3.4 0 2.4-1.9 3.7-1.8 1.2-5.3 1.2-1.6 0-3.2-0.2-1.6-0.3-3.3-0.8v-3.7q1.5 0.7 3 1.1 1.5 0.3 3.1 0.3 1.5 0 2.2-0.3 0.7-0.5 0.7-1.2 0-0.7-0.5-1-0.5-0.3-2-0.5l-0.8-0.1q-3.3-0.4-4.6-1.5-1.3-1.1-1.3-3.4 0-2.4 1.6-3.6 1.7-1.2 5.1-1.2 1.4 0 2.9 0.2 1.5 0.2 3.2 0.7z"/>
		</g>
		<g id="f">
			<path id="Layer" class="s0" d="m458.8 634.7v9.3h-4.9v-7.1q0-2-0.1-2.8-0.1-0.7-0.3-1.1-0.3-0.5-0.8-0.7-0.5-0.3-1.1-0.3-1.5 0-2.4 1.2-0.9 1.2-0.9 3.3v7.5h-4.9v-15.3h4.9v2.2q1.1-1.3 2.4-1.9 1.2-0.7 2.7-0.7 2.7 0 4.1 1.7 1.3 1.6 1.3 4.7z"/>
		</g>
		<g id="e">
			<path id="Layer" fill-rule="evenodd" class="s0" d="m477.7 635.3v8.7h-4.9v-2.3q-1 1.4-2.2 2.1-1.3 0.6-3 0.6-2.4 0-3.9-1.4-1.5-1.4-1.5-3.6 0-2.7 1.9-3.9 1.8-1.3 5.8-1.3h2.9v-0.4q0-1.1-0.9-1.7-1-0.5-2.9-0.5-1.6 0-2.9 0.3-1.4 0.3-2.5 0.9v-3.7q1.5-0.4 3.1-0.6 1.6-0.2 3.2-0.2 4.1 0 6 1.7 1.8 1.6 1.8 5.3zm-7.5 1.8q-1.5 0-2.3 0.5-0.7 0.5-0.7 1.6 0 0.9 0.6 1.4 0.6 0.5 1.7 0.5 1.4 0 2.3-0.9 1-1 1-2.5v-0.6z"/>
		</g>
		<g id="a">
			<path id="Layer" class="s0" d="m493.6 632.9q-0.6-0.3-1.3-0.5-0.6-0.1-1.2-0.1-1.9 0-2.9 1.2-1 1.2-1 3.4v7.1h-4.9v-15.3h4.9v2.5q0.9-1.5 2.1-2.2 1.2-0.7 3-0.7 0.2 0 0.5 0 0.3 0.1 0.8 0.1z"/>
		</g>
		<g id="s">
			<path id="Layer" class="s0" d="m82.4 650.7v3.2h-2.7q-1 0-1.4 0.4-0.4 0.4-0.4 1.3v1.1h4.1v3.5h-4.1v11.8h-4.9v-11.8h-2.5v-3.5h2.5v-1.1q0-2.5 1.4-3.7 1.3-1.2 4.3-1.2z"/>
		</g>
		<g id="a">
			<path id="Layer" class="s0" d="m95.9 660.9q-0.6-0.3-1.3-0.5-0.6-0.1-1.2-0.1-1.9 0-3 1.2-1 1.2-1 3.4v7.1h-4.9v-15.3h4.9v2.5q1-1.5 2.2-2.2 1.2-0.7 2.9-0.7 0.3 0 0.6 0 0.3 0.1 0.8 0.1z"/>
		</g>
		<g id="c">
			<path id="Layer" fill-rule="evenodd" class="s0" d="m105.6 656.3q4 0 6.2 2.2 2.2 2.1 2.2 5.9 0 3.7-2.2 5.9-2.2 2.1-6.2 2.1-3.9 0-6.2-2.1-2.2-2.2-2.2-5.9 0-3.8 2.2-5.9 2.3-2.2 6.2-2.2zm0 3.5q-1.6 0-2.5 1.2-0.8 1.2-0.8 3.4 0 2.2 0.8 3.3 0.9 1.2 2.5 1.2 1.6 0 2.5-1.2 0.8-1.1 0.8-3.3 0-2.2-0.8-3.4-0.9-1.2-2.5-1.2z"/>
		</g>
		<g id="r">
			<path id="Layer" class="s0" d="m131.8 659.2q0.9-1.4 2.2-2.1 1.3-0.8 2.8-0.8 2.6 0 4 1.7 1.4 1.6 1.4 4.7v9.3h-4.9v-8-0.3q0-0.2 0-0.6 0-1.6-0.5-2.4-0.5-0.7-1.5-0.7-1.4 0-2.2 1.2-0.8 1.1-0.8 3.3v7.5h-4.9v-8q0-2.5-0.4-3.3-0.5-0.7-1.6-0.7-1.4 0-2.2 1.2-0.7 1.1-0.7 3.3v7.5h-4.9v-15.3h4.9v2.2q0.9-1.3 2-1.9 1.2-0.7 2.6-0.7 1.6 0 2.8 0.8 1.2 0.7 1.9 2.1z"/>
		</g>
		<g id="d">
			<path id="Layer" class="s0" d="m161.9 652.3v4.4h5v3.5h-5v6.5q0 1.1 0.4 1.4 0.4 0.4 1.6 0.4h2.6v3.5h-4.2q-2.9 0-4.1-1.2-1.3-1.2-1.3-4.1v-6.5h-2.4v-3.5h2.4v-4.4z"/>
		</g>
		<g id="q">
			<path id="Layer" class="s0" d="m185.3 662.7v9.3h-4.9v-7.1q0-2-0.1-2.8-0.1-0.7-0.3-1.1-0.3-0.5-0.8-0.7-0.5-0.3-1.1-0.3-1.6 0-2.4 1.2-0.9 1.2-0.9 3.3v7.5h-4.9v-21.3h4.9v8.2q1.1-1.3 2.3-1.9 1.3-0.7 2.8-0.7 2.6 0 4 1.7 1.4 1.6 1.4 4.7z"/>
		</g>
		<g id="b">
			<path id="Layer" fill-rule="evenodd" class="s0" d="m205.1 664.3v1.4h-11.4q0.1 1.7 1.2 2.6 1.1 0.8 3 0.8 1.5 0 3.1-0.4 1.7-0.5 3.4-1.4v3.8q-1.8 0.6-3.5 0.9-1.7 0.4-3.5 0.4-4.1 0-6.4-2.1-2.3-2.1-2.3-5.9 0-3.8 2.2-5.9 2.3-2.2 6.3-2.2 3.6 0 5.7 2.2 2.2 2.2 2.2 5.8zm-5-1.6q0-1.4-0.8-2.3-0.8-0.8-2.2-0.8-1.4 0-2.3 0.8-0.9 0.8-1.1 2.3z"/>
		</g>
		<g id="p">
			<path id="Layer" class="s0" d="m218.8 651.6h5.9l7.4 14v-14h5v20.4h-5.9l-7.4-14v14h-5z"/>
		</g>
		<g id="c">
			<path id="Layer" fill-rule="evenodd" class="s0" d="m249.3 656.3q3.9 0 6.2 2.2 2.2 2.1 2.2 5.9 0 3.7-2.2 5.9-2.3 2.1-6.2 2.1-4 0-6.2-2.1-2.3-2.2-2.3-5.9 0-3.8 2.3-5.9 2.2-2.2 6.2-2.2zm0 3.5q-1.6 0-2.5 1.2-0.9 1.2-0.9 3.4 0 2.2 0.9 3.3 0.9 1.2 2.5 1.2 1.6 0 2.4-1.2 0.9-1.1 0.9-3.3 0-2.2-0.9-3.4-0.8-1.2-2.4-1.2z"/>
		</g>
		<g id="o">
			<path id="Layer" class="s0" d="m261.1 666v-9.3h4.9v1.5q0 1.3 0 3.1 0 1.9 0 2.5 0 1.9 0.1 2.7 0.1 0.8 0.3 1.2 0.3 0.5 0.8 0.7 0.5 0.3 1.1 0.3 1.5 0 2.4-1.2 0.9-1.2 0.9-3.3v-7.5h4.9v15.3h-4.9v-2.2q-1.1 1.3-2.4 2-1.2 0.6-2.7 0.6-2.7 0-4-1.6-1.4-1.7-1.4-4.8z"/>
		</g>
		<g id="f">
			<path id="Layer" class="s0" d="m296.6 662.7v9.3h-5v-7.1q0-2-0.1-2.8 0-0.7-0.3-1.1-0.2-0.5-0.7-0.7-0.5-0.3-1.2-0.3-1.5 0-2.4 1.2-0.8 1.2-0.8 3.3v7.5h-4.9v-15.3h4.9v2.2q1.1-1.3 2.3-1.9 1.3-0.7 2.8-0.7 2.6 0 4 1.7 1.4 1.6 1.4 4.7z"/>
		</g>
		<g id="n">
			<path id="Layer" fill-rule="evenodd" class="s0" d="m311.1 651.6h8.7q3.9 0 6 1.7 2.1 1.8 2.1 5 0 3.2-2.1 4.9-2.1 1.7-6 1.7h-3.5v7.1h-5.2zm5.2 3.8v5.7h2.9q1.6 0 2.4-0.7 0.8-0.8 0.8-2.1 0-1.4-0.8-2.2-0.8-0.7-2.4-0.7z"/>
		</g>
		<g id="a">
			<path id="Layer" class="s0" d="m342.7 660.9q-0.6-0.3-1.2-0.5-0.7-0.1-1.3-0.1-1.9 0-2.9 1.2-1 1.2-1 3.4v7.1h-4.9v-15.3h4.9v2.5q0.9-1.5 2.1-2.2 1.3-0.7 3-0.7 0.2 0 0.5 0 0.3 0.1 0.8 0.1z"/>
		</g>
		<g id="c">
			<path id="Layer" fill-rule="evenodd" class="s0" d="m352.5 656.3q3.9 0 6.1 2.2 2.2 2.1 2.3 5.9-0.1 3.7-2.3 5.9-2.2 2.1-6.1 2.1-4 0-6.2-2.1-2.3-2.2-2.3-5.9 0-3.8 2.3-5.9 2.2-2.2 6.2-2.2zm0 3.5q-1.7 0-2.5 1.2-0.9 1.2-0.9 3.4 0 2.2 0.9 3.3 0.8 1.2 2.5 1.2 1.6 0 2.4-1.2 0.9-1.1 0.9-3.3 0-2.2-0.9-3.4-0.8-1.2-2.4-1.2z"/>
		</g>
		<g id="m">
			<path id="Layer" class="s0" d="m364.4 656.7h4.9v15q0 3.1-1.5 4.7-1.4 1.6-4.3 1.6h-2.4v-3.2h0.9q1.4 0 1.9-0.6 0.5-0.6 0.5-2.5zm0-5.9h4.9v4h-4.9z"/>
		</g>
		<g id="b">
			<path id="Layer" fill-rule="evenodd" class="s0" d="m389.3 664.3v1.4h-11.5q0.2 1.7 1.3 2.6 1.1 0.8 3 0.8 1.5 0 3.1-0.4 1.7-0.5 3.4-1.4v3.8q-1.8 0.6-3.5 0.9-1.7 0.4-3.5 0.4-4.1 0-6.4-2.1-2.3-2.1-2.3-5.9 0-3.8 2.2-5.9 2.3-2.2 6.2-2.2 3.7 0 5.8 2.2 2.2 2.2 2.2 5.8zm-5-1.6q0-1.4-0.8-2.3-0.9-0.8-2.2-0.8-1.4 0-2.3 0.8-0.9 0.8-1.1 2.3z"/>
		</g>
		<g id="l">
			<path id="Layer" class="s0" d="m405.4 657.2v4q-1-0.7-2-1.1-1-0.3-2.1-0.3-2.1 0-3.2 1.2-1.2 1.2-1.2 3.4 0 2.1 1.2 3.3 1.1 1.2 3.2 1.2 1.1 0 2.2-0.3 1-0.4 1.9-1.1v4q-1.2 0.5-2.4 0.7-1.1 0.2-2.3 0.2-4.2 0-6.5-2.1-2.4-2.2-2.3-5.9-0.1-3.8 2.3-6 2.3-2.1 6.5-2.1 1.2 0 2.3 0.2 1.2 0.2 2.4 0.7z"/>
		</g>
		<g id="d">
			<path id="Layer" class="s0" d="m414.9 652.3v4.4h5.1v3.5h-5.1v6.5q0 1.1 0.5 1.4 0.4 0.4 1.6 0.4h2.6v3.5h-4.2q-2.9 0-4.2-1.2-1.2-1.2-1.2-4.1v-6.5h-2.4v-3.5h2.4v-4.4z"/>
		</g>
	</g>
</svg>